<svg xmlns="http://www.w3.org/2000/svg" version="1.1" xmlns:xlink="http://www.w3.org/1999/xlink" xmlns:svgjs="http://svgjs.com/svgjs" width="1440" height="560" preserveAspectRatio="none" viewBox="0 0 1440 560"><g mask="url(&quot;#SvgjsMask1042&quot;)" fill="none"><rect width="1440" height="560" x="0" y="0" fill="#0e2a47"></rect><use xlink:href="#SvgjsG1047" transform="translate(0, 0)" fill="rgba(31, 85, 139, 1)"></use><use xlink:href="#SvgjsG1047" transform="translate(625, 0)" fill="rgba(31, 85, 139, 1)"></use><use xlink:href="#SvgjsG1047" transform="translate(1250, 0)" fill="rgba(31, 85, 139, 1)"></use></g><defs><mask id="SvgjsMask1042"><rect width="1440" height="560" fill="#ffffff"></rect></mask><g id="SvgjsG1045"><path d="M7.713 15.485C3.459 15.485 0 12.025 0 7.768 0 3.513 3.459 0.051 7.713 0.051S15.432 3.513 15.432 7.768c0 4.257-3.465 7.716-7.719 7.717z m0-1.91c3.201 0 5.81-2.604 5.81-5.809 0-3.199-2.61-5.807-5.81-5.807-3.202 0-5.804 2.609-5.804 5.807-0.001 3.206 2.602 5.809 5.804 5.809z"></path><path d="M7.753 8.787a0.574 0.574 0 0 1-0.554-0.042 0.578 0.578 0 0 1-0.259-0.399L6.931 3.862a0.58 0.58 0 0 1 1.162 0v3.478l2.975-1.4a0.578 0.578 0 0 1 0.773 0.275c0.138 0.292 0.011 0.637-0.276 0.774l-3.81 1.798z"></path></g><g id="SvgjsG1043"><path d="M8.76 6.296L0.5 2.37v-0.78L9.032 5.68l-0.274 0.614zM5.936 10.61h3.614v3.226a0.954 0.954 0 0 0 1.91 0V10.61c0.286 0 0.314-0.188 0.314-0.406V7.8l-3.02-1.48h-6.42l-0.828-0.468a0.552 0.552 0 0 0-0.754 0.208c-0.15 0.264-0.06 0.6 0.208 0.754l1.308 0.75v6.272a0.954 0.954 0 0 0 1.91 0L4.172 11.38l1.73 2.92a0.96 0.96 0 0 0 1.312 0.334 0.966 0.966 0 0 0 0.328-1.314l-1.612-2.71z m3.114-4.946l2.72 1.292v-0.506l2.214-0.004 0.812-1.746L9.05 1.96v3.704z" fill-rule="evenodd"></path></g><g id="SvgjsG1046"><path d="M16 11.289H0C0.001 12.447 0.884 12.984 1.594 12.987H14.406c0.847-0.003 1.59-0.669 1.594-1.698zM12.96 3.12H3.413v6.263c0.002 0.851 0.734 1.523 1.525 1.525h6.194c0.893-0.002 1.502-0.752 1.498-1.525v-0.519c1.768-0.002 3.05-1.328 3.05-2.876 0.001-1.575-1.256-2.869-2.72-2.868zM12.63 7.668V4.298h0.33c1.211-0.002 1.599 1.143 1.593 1.698 0.001 0.896-0.662 1.755-1.923 1.672z"></path></g><g id="SvgjsG1044"><path d="M8.655 0C5.901 0 3.36 2.069 2.833 4.347 2.715 4.854 2.582 6.177 2.582 6.177L1.318 9.37A0.469 0.469 0 0 0 1.28 9.561a0.488 0.488 0 0 0 0.489 0.488h0.814v1.697c0 1.324 1.07 2.396 2.392 2.396h0.952V16h3.535v-0.829h1.44V16h1.503V10.847c1.413-1.111 2.322-2.838 2.322-4.774C14.726 2.718 12.01 0 8.655 0zM4.077 7.387a0.682 0.682 0 0 1-0.682-0.682c0-0.375 0.306-0.68 0.682-0.68a0.681 0.681 0 0 1 0.679 0.68c0 0.377-0.306 0.682-0.68 0.682z m5.385 4.46h1.44v0.779h-1.44v-0.779z m0-1.108h1.44v0.778h-1.44V10.739z m0 2.215h1.44v0.78h-1.44v-0.78z m0 1.109h1.44v0.78h-1.44V14.062z m0-4.431h1.448c-0.003 0.057-0.009 0.113-0.009 0.172v0.607h-1.44V9.632z m3.986-4.488a1.557 1.557 0 0 1-0.427 1.071c-0.045 0.592-0.42 1.091-0.942 1.316v0.005c-0.637 0.372-1.019 1.005-1.135 1.766H10.354v-1.765c0.004-0.55 0.177-0.902 0.539-1.119a1.907 1.907 0 0 0 0.356-0.26 1.229 1.229 0 0 1 0.659 0.556c0.032 0.053 0.088 0.083 0.144 0.082 0.027 0 0.055-0.007 0.08-0.021a0.163 0.163 0 0 0 0.064-0.224h-0.001a1.563 1.563 0 0 0-0.721-0.657c0.15-0.231 0.234-0.506 0.23-0.837 0-0.002 0.002-0.003 0.003-0.006 0-0.149-0.022-0.294-0.062-0.431a1.572 1.572 0 0 0 0.871-0.486 0.164 0.164 0 0 0-0.011-0.234 0.164 0.164 0 0 0-0.232 0.011 1.248 1.248 0 0 1-0.755 0.396c-0.24-0.444-0.686-0.76-1.209-0.818a1.235 1.235 0 0 1 0.353-0.724 0.166 0.166 0 0 0 0-0.233 0.166 0.166 0 0 0-0.234 0 1.572 1.572 0 0 0-0.45 0.937 1.244 1.244 0 0 1-1.088-1.234c0-0.09-0.075-0.165-0.163-0.165-0.093 0-0.166 0.075-0.167 0.165 0 0.107 0.01 0.21 0.031 0.31a1.24 1.24 0 0 1-1.235 0.229s-0.002 0-0.003-0.001a1.225 1.225 0 0 1-0.453-0.289c-0.063-0.064-0.168-0.064-0.233 0-0.065 0.064-0.065 0.168 0 0.233a1.59 1.59 0 0 0 0.452 0.316c-0.033 0.411-0.271 0.764-0.605 0.963a1.578 1.578 0 0 0-0.84-0.639 0.166 0.166 0 0 0-0.209 0.107c-0.024 0.087 0.02 0.179 0.108 0.207a1.247 1.247 0 0 1 0.63 0.455 1.221 1.221 0 0 1-0.32 0.042h-0.02a1.568 1.568 0 0 0-1.096 0.444 0.161 0.161 0 0 0-0.003 0.233 0.162 0.162 0 0 0 0.231 0.003 1.236 1.236 0 0 1 0.868-0.35h0.019c0.794 0 1.453-0.591 1.557-1.358 0.113 0.024 0.226 0.038 0.34 0.038A1.574 1.574 0 0 0 8.699 2.88a1.558 1.558 0 0 0 0.45 0.583 1.556 1.556 0 0 0-0.341 0.82 1.622 1.622 0 0 0-0.256-0.021 1.557 1.557 0 0 0-0.736 0.185c-0.08 0.043-0.111 0.142-0.068 0.224 0.03 0.055 0.088 0.087 0.147 0.087a0.144 0.144 0 0 0 0.075-0.02 1.25 1.25 0 0 1 0.583-0.146c0.087 0 0.173 0.01 0.256 0.027a1.576 1.576 0 0 0 0.428 0.92c0.033 0.034 0.076 0.051 0.118 0.051 0.04 0 0.082-0.015 0.115-0.046 0.067-0.063 0.069-0.167 0.005-0.232h-0.001a1.253 1.253 0 0 1-0.345-0.829c0-0.004 0.001-0.008 0-0.013v-0.018a1.237 1.237 0 0 1 0.299-0.81 1.57 1.57 0 0 0 0.701 0.166s0.001 0 0.003 0h0.003a1.244 1.244 0 0 1 1.241 1.24 1.566 1.566 0 0 0-0.401-0.052c-0.196 0-0.395 0.036-0.587 0.114a0.164 0.164 0 0 0-0.091 0.215c0.035 0.084 0.129 0.125 0.214 0.09a1.247 1.247 0 0 1 0.464-0.091c0.124 0 0.248 0.019 0.363 0.055a0.953 0.953 0 0 1-0.242 0.464 0.14 0.14 0 0 0-0.025 0.029c-0.094 0.092-0.207 0.177-0.346 0.262-0.477 0.278-0.706 0.784-0.701 1.403V9.301h-0.563V7.624c0-0.616-0.386-1.201-0.873-1.409-0.232-0.09-0.474-0.241-0.65-0.438a1.558 1.558 0 0 1-0.878 0.271 1.555 1.555 0 0 1-0.877-0.269 1.581 1.581 0 0 1-0.87 0.26c-0.883 0-1.596-0.715-1.597-1.597 0-0.659 0.398-1.224 0.969-1.467 0.154-0.703 0.777-1.229 1.527-1.23 0.04 0 0.076 0.003 0.113 0.006a1.567 1.567 0 0 1 1.295-0.684c0.266 0 0.516 0.066 0.736 0.185a1.558 1.558 0 0 1 1.925 0.158 1.553 1.553 0 0 1 0.365-0.044c0.633 0 1.18 0.381 1.424 0.926 0.642 0.195 1.11 0.79 1.11 1.496a1.576 1.576 0 0 1-0.054 0.408 1.561 1.561 0 0 1 0.321 0.948z"></path></g><g id="SvgjsG1047"><use xlink:href="#SvgjsG1043" transform="translate(0, 0) scale(2.5)" fill="rgba(31, 85, 139, 1)"></use><use xlink:href="#SvgjsG1044" transform="translate(0, 62.5) scale(2.5)" fill="rgba(31, 85, 139, 1)"></use><use xlink:href="#SvgjsG1044" transform="translate(0, 125) scale(2.5)" fill="rgba(31, 85, 139, 1)"></use><use xlink:href="#SvgjsG1043" transform="translate(0, 187.5) scale(2.5)" fill="rgba(31, 85, 139, 1)"></use><use xlink:href="#SvgjsG1045" transform="translate(0, 250) scale(2.5)" fill="rgba(31, 85, 139, 1)"></use><use xlink:href="#SvgjsG1045" transform="translate(0, 312.5) scale(2.5)" fill="rgba(31, 85, 139, 1)"></use><use xlink:href="#SvgjsG1045" transform="translate(0, 375) scale(2.5)" fill="rgba(31, 85, 139, 1)"></use><use xlink:href="#SvgjsG1045" transform="translate(0, 437.5) scale(2.5)" fill="rgba(31, 85, 139, 1)"></use><use xlink:href="#SvgjsG1045" transform="translate(0, 500) scale(2.5)" fill="rgba(31, 85, 139, 1)"></use><use xlink:href="#SvgjsG1046" transform="translate(62.5, 0) scale(2.5)" fill="rgba(31, 85, 139, 1)"></use><use xlink:href="#SvgjsG1044" transform="translate(62.5, 62.5) scale(2.5)" fill="rgba(31, 85, 139, 1)"></use><use xlink:href="#SvgjsG1046" transform="translate(62.5, 125) scale(2.5)" fill="rgba(31, 85, 139, 1)"></use><use xlink:href="#SvgjsG1043" transform="translate(62.5, 187.5) scale(2.5)" fill="rgba(31, 85, 139, 1)"></use><use xlink:href="#SvgjsG1045" transform="translate(62.5, 250) scale(2.5)" fill="rgba(31, 85, 139, 1)"></use><use xlink:href="#SvgjsG1045" transform="translate(62.5, 312.5) scale(2.5)" fill="rgba(31, 85, 139, 1)"></use><use xlink:href="#SvgjsG1045" transform="translate(62.5, 375) scale(2.5)" fill="rgba(31, 85, 139, 1)"></use><use xlink:href="#SvgjsG1044" transform="translate(62.5, 437.5) scale(2.5)" fill="rgba(31, 85, 139, 1)"></use><use xlink:href="#SvgjsG1044" transform="translate(62.5, 500) scale(2.5)" fill="rgba(31, 85, 139, 1)"></use><use xlink:href="#SvgjsG1044" transform="translate(125, 0) scale(2.5)" fill="rgba(31, 85, 139, 1)"></use><use xlink:href="#SvgjsG1043" transform="translate(125, 62.5) scale(2.5)" fill="rgba(31, 85, 139, 1)"></use><use xlink:href="#SvgjsG1045" transform="translate(125, 125) scale(2.5)" fill="rgba(31, 85, 139, 1)"></use><use xlink:href="#SvgjsG1043" transform="translate(125, 187.5) scale(2.5)" fill="rgba(31, 85, 139, 1)"></use><use xlink:href="#SvgjsG1043" transform="translate(125, 250) scale(2.5)" fill="rgba(31, 85, 139, 1)"></use><use xlink:href="#SvgjsG1043" transform="translate(125, 312.5) scale(2.5)" fill="rgba(31, 85, 139, 1)"></use><use xlink:href="#SvgjsG1044" transform="translate(125, 375) scale(2.5)" fill="rgba(31, 85, 139, 1)"></use><use xlink:href="#SvgjsG1045" transform="translate(125, 437.5) scale(2.5)" fill="rgba(31, 85, 139, 1)"></use><use xlink:href="#SvgjsG1044" transform="translate(125, 500) scale(2.5)" fill="rgba(31, 85, 139, 1)"></use><use xlink:href="#SvgjsG1044" transform="translate(187.5, 0) scale(2.5)" fill="rgba(31, 85, 139, 1)"></use><use xlink:href="#SvgjsG1044" transform="translate(187.5, 62.5) scale(2.5)" fill="rgba(31, 85, 139, 1)"></use><use xlink:href="#SvgjsG1044" transform="translate(187.5, 125) scale(2.5)" fill="rgba(31, 85, 139, 1)"></use><use xlink:href="#SvgjsG1043" transform="translate(187.5, 187.5) scale(2.5)" fill="rgba(31, 85, 139, 1)"></use><use xlink:href="#SvgjsG1046" transform="translate(187.5, 250) scale(2.5)" fill="rgba(31, 85, 139, 1)"></use><use xlink:href="#SvgjsG1043" transform="translate(187.5, 312.5) scale(2.5)" fill="rgba(31, 85, 139, 1)"></use><use xlink:href="#SvgjsG1046" transform="translate(187.5, 375) scale(2.5)" fill="rgba(31, 85, 139, 1)"></use><use xlink:href="#SvgjsG1043" transform="translate(187.5, 437.5) scale(2.5)" fill="rgba(31, 85, 139, 1)"></use><use xlink:href="#SvgjsG1046" transform="translate(187.5, 500) scale(2.5)" fill="rgba(31, 85, 139, 1)"></use><use xlink:href="#SvgjsG1046" transform="translate(250, 0) scale(2.5)" fill="rgba(31, 85, 139, 1)"></use><use xlink:href="#SvgjsG1043" transform="translate(250, 62.5) scale(2.5)" fill="rgba(31, 85, 139, 1)"></use><use xlink:href="#SvgjsG1046" transform="translate(250, 125) scale(2.5)" fill="rgba(31, 85, 139, 1)"></use><use xlink:href="#SvgjsG1046" transform="translate(250, 187.5) scale(2.5)" fill="rgba(31, 85, 139, 1)"></use><use xlink:href="#SvgjsG1045" transform="translate(250, 250) scale(2.5)" fill="rgba(31, 85, 139, 1)"></use><use xlink:href="#SvgjsG1044" transform="translate(250, 312.5) scale(2.5)" fill="rgba(31, 85, 139, 1)"></use><use xlink:href="#SvgjsG1045" transform="translate(250, 375) scale(2.5)" fill="rgba(31, 85, 139, 1)"></use><use xlink:href="#SvgjsG1044" transform="translate(250, 437.5) scale(2.5)" fill="rgba(31, 85, 139, 1)"></use><use xlink:href="#SvgjsG1045" transform="translate(250, 500) scale(2.5)" fill="rgba(31, 85, 139, 1)"></use><use xlink:href="#SvgjsG1044" transform="translate(312.5, 0) scale(2.5)" fill="rgba(31, 85, 139, 1)"></use><use xlink:href="#SvgjsG1043" transform="translate(312.5, 62.5) scale(2.5)" fill="rgba(31, 85, 139, 1)"></use><use xlink:href="#SvgjsG1044" transform="translate(312.5, 125) scale(2.5)" fill="rgba(31, 85, 139, 1)"></use><use xlink:href="#SvgjsG1043" transform="translate(312.5, 187.5) scale(2.5)" fill="rgba(31, 85, 139, 1)"></use><use xlink:href="#SvgjsG1043" transform="translate(312.5, 250) scale(2.5)" fill="rgba(31, 85, 139, 1)"></use><use xlink:href="#SvgjsG1044" transform="translate(312.5, 312.5) scale(2.5)" fill="rgba(31, 85, 139, 1)"></use><use xlink:href="#SvgjsG1044" transform="translate(312.5, 375) scale(2.5)" fill="rgba(31, 85, 139, 1)"></use><use xlink:href="#SvgjsG1044" transform="translate(312.5, 437.5) scale(2.5)" fill="rgba(31, 85, 139, 1)"></use><use xlink:href="#SvgjsG1046" transform="translate(312.5, 500) scale(2.5)" fill="rgba(31, 85, 139, 1)"></use><use xlink:href="#SvgjsG1043" transform="translate(375, 0) scale(2.5)" fill="rgba(31, 85, 139, 1)"></use><use xlink:href="#SvgjsG1043" transform="translate(375, 62.5) scale(2.5)" fill="rgba(31, 85, 139, 1)"></use><use xlink:href="#SvgjsG1045" transform="translate(375, 125) scale(2.5)" fill="rgba(31, 85, 139, 1)"></use><use xlink:href="#SvgjsG1045" transform="translate(375, 187.5) scale(2.5)" fill="rgba(31, 85, 139, 1)"></use><use xlink:href="#SvgjsG1043" transform="translate(375, 250) scale(2.5)" fill="rgba(31, 85, 139, 1)"></use><use xlink:href="#SvgjsG1043" transform="translate(375, 312.5) scale(2.5)" fill="rgba(31, 85, 139, 1)"></use><use xlink:href="#SvgjsG1044" transform="translate(375, 375) scale(2.5)" fill="rgba(31, 85, 139, 1)"></use><use xlink:href="#SvgjsG1046" transform="translate(375, 437.5) scale(2.5)" fill="rgba(31, 85, 139, 1)"></use><use xlink:href="#SvgjsG1046" transform="translate(375, 500) scale(2.5)" fill="rgba(31, 85, 139, 1)"></use><use xlink:href="#SvgjsG1044" transform="translate(437.5, 0) scale(2.5)" fill="rgba(31, 85, 139, 1)"></use><use xlink:href="#SvgjsG1044" transform="translate(437.5, 62.5) scale(2.5)" fill="rgba(31, 85, 139, 1)"></use><use xlink:href="#SvgjsG1044" transform="translate(437.5, 125) scale(2.5)" fill="rgba(31, 85, 139, 1)"></use><use xlink:href="#SvgjsG1044" transform="translate(437.5, 187.5) scale(2.5)" fill="rgba(31, 85, 139, 1)"></use><use xlink:href="#SvgjsG1044" transform="translate(437.5, 250) scale(2.5)" fill="rgba(31, 85, 139, 1)"></use><use xlink:href="#SvgjsG1044" transform="translate(437.5, 312.5) scale(2.5)" fill="rgba(31, 85, 139, 1)"></use><use xlink:href="#SvgjsG1044" transform="translate(437.5, 375) scale(2.5)" fill="rgba(31, 85, 139, 1)"></use><use xlink:href="#SvgjsG1043" transform="translate(437.5, 437.5) scale(2.5)" fill="rgba(31, 85, 139, 1)"></use><use xlink:href="#SvgjsG1043" transform="translate(437.5, 500) scale(2.5)" fill="rgba(31, 85, 139, 1)"></use><use xlink:href="#SvgjsG1044" transform="translate(500, 0) scale(2.5)" fill="rgba(31, 85, 139, 1)"></use><use xlink:href="#SvgjsG1045" transform="translate(500, 62.5) scale(2.5)" fill="rgba(31, 85, 139, 1)"></use><use xlink:href="#SvgjsG1044" transform="translate(500, 125) scale(2.5)" fill="rgba(31, 85, 139, 1)"></use><use xlink:href="#SvgjsG1046" transform="translate(500, 187.5) scale(2.5)" fill="rgba(31, 85, 139, 1)"></use><use xlink:href="#SvgjsG1045" transform="translate(500, 250) scale(2.5)" fill="rgba(31, 85, 139, 1)"></use><use xlink:href="#SvgjsG1045" transform="translate(500, 312.5) scale(2.5)" fill="rgba(31, 85, 139, 1)"></use><use xlink:href="#SvgjsG1044" transform="translate(500, 375) scale(2.5)" fill="rgba(31, 85, 139, 1)"></use><use xlink:href="#SvgjsG1045" transform="translate(500, 437.5) scale(2.5)" fill="rgba(31, 85, 139, 1)"></use><use xlink:href="#SvgjsG1045" transform="translate(500, 500) scale(2.5)" fill="rgba(31, 85, 139, 1)"></use><use xlink:href="#SvgjsG1043" transform="translate(562.5, 0) scale(2.5)" fill="rgba(31, 85, 139, 1)"></use><use xlink:href="#SvgjsG1043" transform="translate(562.5, 62.5) scale(2.5)" fill="rgba(31, 85, 139, 1)"></use><use xlink:href="#SvgjsG1043" transform="translate(562.5, 125) scale(2.5)" fill="rgba(31, 85, 139, 1)"></use><use xlink:href="#SvgjsG1046" transform="translate(562.5, 187.5) scale(2.5)" fill="rgba(31, 85, 139, 1)"></use><use xlink:href="#SvgjsG1044" transform="translate(562.5, 250) scale(2.5)" fill="rgba(31, 85, 139, 1)"></use><use xlink:href="#SvgjsG1043" transform="translate(562.5, 312.5) scale(2.5)" fill="rgba(31, 85, 139, 1)"></use><use xlink:href="#SvgjsG1046" transform="translate(562.5, 375) scale(2.5)" fill="rgba(31, 85, 139, 1)"></use><use xlink:href="#SvgjsG1044" transform="translate(562.5, 437.5) scale(2.5)" fill="rgba(31, 85, 139, 1)"></use><use xlink:href="#SvgjsG1044" transform="translate(562.5, 500) scale(2.5)" fill="rgba(31, 85, 139, 1)"></use></g></defs></svg>